<?xml version="1.0" encoding="UTF-8"?>
<svg id="Layer_1" data-name="Layer 1" xmlns="http://www.w3.org/2000/svg" xmlns:xlink="http://www.w3.org/1999/xlink" viewBox="0 0 2756.69 3069.32">
  <defs>
    <style>
      .cls-1 {
        fill: url(#linear-gradient-15);
      }

      .cls-2 {
        fill: url(#linear-gradient-13);
      }

      .cls-3 {
        fill: #0a0c0f;
      }

      .cls-4 {
        clip-path: url(#clippath-6);
      }

      .cls-5 {
        clip-path: url(#clippath-17);
      }

      .cls-6 {
        clip-path: url(#clippath-15);
      }

      .cls-7 {
        clip-path: url(#clippath-18);
      }

      .cls-8 {
        fill: url(#linear-gradient-2);
      }

      .cls-9 {
        fill: url(#linear-gradient-10);
      }

      .cls-10 {
        fill: url(#linear-gradient-12);
      }

      .cls-11 {
        clip-path: url(#clippath-9);
      }

      .cls-12 {
        clip-path: url(#clippath-10);
      }

      .cls-13 {
        fill: #fff;
      }

      .cls-14 {
        clip-path: url(#clippath-11);
      }

      .cls-15 {
        fill: none;
      }

      .cls-16 {
        fill: url(#linear-gradient-4);
      }

      .cls-17 {
        fill: url(#linear-gradient-3);
      }

      .cls-18 {
        clip-path: url(#clippath-1);
      }

      .cls-19 {
        fill: url(#linear-gradient-5);
      }

      .cls-20 {
        clip-path: url(#clippath-5);
      }

      .cls-21 {
        clip-path: url(#clippath-8);
      }

      .cls-22 {
        fill: url(#linear-gradient-8);
      }

      .cls-23 {
        clip-path: url(#clippath-3);
      }

      .cls-24 {
        clip-path: url(#clippath-12);
      }

      .cls-25 {
        fill: url(#linear-gradient-14);
      }

      .cls-26 {
        clip-path: url(#clippath-14);
      }

      .cls-27 {
        fill: url(#linear-gradient-17);
      }

      .cls-28 {
        fill: url(#linear-gradient-7);
      }

      .cls-29 {
        fill: url(#linear-gradient-9);
      }

      .cls-30 {
        fill: url(#linear-gradient-11);
      }

      .cls-31 {
        fill: url(#linear-gradient-19);
      }

      .cls-32 {
        fill: url(#linear-gradient-6);
      }

      .cls-33 {
        fill: #43482f;
      }

      .cls-34 {
        fill: #101116;
      }

      .cls-35 {
        clip-path: url(#clippath-16);
      }

      .cls-36 {
        clip-path: url(#clippath-2);
      }

      .cls-37 {
        clip-path: url(#clippath-13);
      }

      .cls-38 {
        fill: url(#linear-gradient-16);
      }

      .cls-39 {
        fill: url(#linear-gradient);
      }

      .cls-40 {
        clip-path: url(#clippath);
      }

      .cls-41 {
        fill: url(#linear-gradient-18);
      }
    </style>
    <clipPath id="clippath">
      <path class="cls-15" d="M1833.99,943.45l-1091.83,11.45c-77.21,3.96-83.15,67.31-83.15,67.31v195.73h0l1237.5,7.85c34.31.67,57.18,18.93,67.8,29.8,10.69,10.95,28.54,34.51,28.12,69.21-.65,53.02-46.39,97.39-99.02,96.62l-484.05-2.31v274.27h399.74c56.24,0,112.39-8.31,165.43-27.03,310.95-109.79,254.48-442.18,254.48-442.18-31.58-147-135.62-217.34-222.87-250.89-53.12-20.42-109.82-29.85-166.72-29.85-1.81,0-3.61,0-5.42.03"/>
    </clipPath>
    <linearGradient id="linear-gradient" x1="-5706.8" y1="295.09" x2="-5706.17" y2="295.09" gradientTransform="translate(-624107.02 12099063.79) rotate(90) scale(2119.95 -2119.95)" gradientUnits="userSpaceOnUse">
      <stop offset="0" stop-color="#0d1216"/>
      <stop offset=".33" stop-color="#0d1216"/>
      <stop offset=".36" stop-color="#181e22"/>
      <stop offset=".4" stop-color="#272f32"/>
      <stop offset=".44" stop-color="#2d3538"/>
      <stop offset="1" stop-color="#2d3538"/>
    </linearGradient>
    <clipPath id="clippath-1">
      <path class="cls-15" d="M774.91,865.65c-19.64-3-35.51-19.36-37.99-39.07-3.39-26.92,16.77-49.72,42.63-51.16v-.25h796.14v60.86l-187.84,2.42v7.09h-551.14c-8.9,0-17.65,3-24.25,8.96-8.05,7.27-18.7,11.7-30.4,11.7-2.35,0-4.74-.18-7.16-.55M659.01,1022.21s5.94-63.35,83.15-67.31l1091.83-11.45c58.72-.62,117.34,8.75,172.15,29.82,87.24,33.54,191.29,103.88,222.87,250.89,0,0,56.47,332.4-254.48,442.18-53.03,18.72-109.18,27.03-165.43,27.03h-399.74v253.11l479.11,2.28c2.3.03,4.56.04,6.86.04,352.85-.01,641.47-263.47,645.82-617.27,2.12-172.28-63.26-335.36-184.06-459.18-120.82-123.82-287.5-182.62-459.79-184.73l-1212.68-5.79h-.21"/>
    </clipPath>
    <linearGradient id="linear-gradient-2" x1="-5707.72" y1="294.54" x2="-5707.09" y2="294.54" gradientTransform="translate(-986044.47 19139089.68) rotate(90) scale(3353.12 -3353.12)" gradientUnits="userSpaceOnUse">
      <stop offset="0" stop-color="#212e34"/>
      <stop offset=".18" stop-color="#212e34"/>
      <stop offset=".52" stop-color="#101417"/>
      <stop offset="1" stop-color="#101417"/>
    </linearGradient>
    <clipPath id="clippath-2">
      <path class="cls-15" d="M1088,2292.78c2.11,7.83,3.26,15.92,3.31,24.1v.64c.07,12.15-2.27,24.18-6.73,35.48-12.27,31.09-36.58,102.12-34.88,173.01l-2.94,307.18c-.45,46.67,13.97,92.91,43.78,129.6,7.46,9.18,16.24,18.03,26.19,26.22l81.34-96.23c-30.55-4.34-58.97-25.12-64.59-55.36l-.13-.72c-5.33-29.16,2.65-59.19,20.76-82.66l50.29-51.76,3.01-352.53c.12-14.17-4.09-36.53-9.35-49.69l-.25-.53c-1.96-4.12-6.11-6.74-10.67-6.74h-99.13Z"/>
    </clipPath>
    <linearGradient id="linear-gradient-3" x1="-5705.62" y1="294.34" x2="-5704.98" y2="294.34" gradientTransform="translate(-478008.34 9289868.08) rotate(90) scale(1627.81 -1627.81)" gradientUnits="userSpaceOnUse">
      <stop offset="0" stop-color="#2b3331"/>
      <stop offset=".31" stop-color="#29312f"/>
      <stop offset=".43" stop-color="#232a2a"/>
      <stop offset=".53" stop-color="#181d20"/>
      <stop offset=".58" stop-color="#0d1117"/>
      <stop offset="1" stop-color="#0d1117"/>
    </linearGradient>
    <clipPath id="clippath-3">
      <polygon class="cls-15" points="449.26 679.05 452.62 962.84 453.69 1220.42 536.91 1220.42 536.91 1207.93 538.97 1001.15 536.91 1207.93 538.97 679.05 449.26 679.05"/>
    </clipPath>
    <linearGradient id="linear-gradient-4" x1="-5705.25" y1="297.45" x2="-5704.62" y2="297.45" gradientTransform="translate(442009.27 6821891.69) rotate(83.31) scale(1196.48 -1196.48)" gradientUnits="userSpaceOnUse">
      <stop offset="0" stop-color="#faad18"/>
      <stop offset=".76" stop-color="#bc4827"/>
      <stop offset="1" stop-color="#bc4827"/>
    </linearGradient>
    <linearGradient id="linear-gradient-5" x1="-5705.33" y1="297.5" x2="-5704.68" y2="297.5" gradientTransform="translate(-991777.15 6763837.68) rotate(95.36) scale(1196.48 -1196.48)" xlink:href="#linear-gradient-4"/>
    <clipPath id="clippath-5">
      <path class="cls-15" d="M423.57,679.05c-73.91,0-133.82,60.91-133.82,134.82v67.21c1.91,5.82,3.21,11.93,3.21,18.39v66.73l159.67-3.36,3.13-284.55-32.18.76Z"/>
    </clipPath>
    <linearGradient id="linear-gradient-6" x1="-5700.03" y1="292.51" x2="-5699.39" y2="292.51" gradientTransform="translate(3512046.35 2393284) rotate(31.33) scale(744.51 -744.51)" gradientUnits="userSpaceOnUse">
      <stop offset="0" stop-color="#0c1214"/>
      <stop offset=".02" stop-color="#151f22"/>
      <stop offset=".06" stop-color="#1c2a2e"/>
      <stop offset=".11" stop-color="#203035"/>
      <stop offset=".24" stop-color="#223237"/>
      <stop offset="1" stop-color="#223237"/>
    </linearGradient>
    <clipPath id="clippath-6">
      <path class="cls-15" d="M190.5,883.52v63.76l.58,43.92c-.13,0-.39.02-.58.03v56.09c0,23.89,19.36,43.25,43.25,43.25,26.23,0,48.22-17.18,55.99-40.81v-168.66c-7.77-23.63-29.76-40.81-55.99-40.81-23.88,0-43.25,19.36-43.25,43.25"/>
    </clipPath>
    <linearGradient id="linear-gradient-7" x1="-5702.09" y1="305.86" x2="-5701.46" y2="305.86" gradientTransform="translate(-2721529.45 -145036.22) rotate(-180) scale(477.35 -477.35)" gradientUnits="userSpaceOnUse">
      <stop offset="0" stop-color="#0c1214"/>
      <stop offset=".03" stop-color="#0c1214"/>
      <stop offset=".06" stop-color="#322815"/>
      <stop offset=".09" stop-color="#5b4016"/>
      <stop offset=".13" stop-color="#805617"/>
      <stop offset=".18" stop-color="#a16919"/>
      <stop offset=".23" stop-color="#bc7919"/>
      <stop offset=".28" stop-color="#d2861a"/>
      <stop offset=".35" stop-color="#e3901b"/>
      <stop offset=".43" stop-color="#ef961b"/>
      <stop offset=".54" stop-color="#f69a1b"/>
      <stop offset=".85" stop-color="#f89c1c"/>
      <stop offset=".96" stop-color="#070909"/>
      <stop offset="1" stop-color="#070909"/>
    </linearGradient>
    <clipPath id="clippath-8">
      <path class="cls-15" d="M289.74,966.26v83.48c1.91-5.82,3.21-11.93,3.21-18.39v-65.17l-3.21.07Z"/>
    </clipPath>
    <linearGradient id="linear-gradient-8" x1="-5702.09" y1="305.79" x2="-5701.46" y2="305.79" gradientTransform="translate(-2721450.61 -144964.75) rotate(-180) scale(477.36 -477.36)" xlink:href="#linear-gradient-7"/>
    <clipPath id="clippath-9">
      <path class="cls-15" d="M289.74,966.26l3.21-.07v-66.73c0-6.46-1.29-12.57-3.21-18.39v85.18Z"/>
    </clipPath>
    <linearGradient id="linear-gradient-9" x1="-5700.03" y1="292.61" x2="-5699.39" y2="292.61" gradientTransform="translate(-217557.6 4244565.96) rotate(90) scale(744.51 -744.51)" xlink:href="#linear-gradient-6"/>
    <clipPath id="clippath-10">
      <path class="cls-15" d="M289.74,966.26l3.21-.07v-66.73c0-6.46-1.29-12.57-3.21-18.39v85.18Z"/>
    </clipPath>
    <linearGradient id="linear-gradient-10" x1="-5702.09" y1="305.8" x2="-5701.46" y2="305.8" gradientTransform="translate(-2721530.93 -145051.71) rotate(180) scale(477.36 -477.36)" xlink:href="#linear-gradient-7"/>
    <clipPath id="clippath-11">
      <path class="cls-15" d="M48.96,996.62c-8.59,20.12-13.02,42.79-13.18,67.4l-1.74,278.71.03.93c2.42,67.97,47.03,198.31,198.58,205.11l1.06.04,816.43-2.1h.25c51.6,0,93.68,41.91,93.86,93.54l9.69,390.3c.13,5.42,4.57,9.73,9.99,9.71l64.12-.22h0c4.02-.24,7.15-3.57,7.14-7.6l-1.34-392.5c-.34-100.92-82.59-182.83-183.45-182.83h-.48l-814.24,2.09c-101.85-5.21-111.21-103.88-112.03-118.08l1.73-276.56c.08-12.64,2.09-23.68,5.99-32.79,15.84-37.13,52.91-40.3,59.14-40.58v-44.82s-.01-22.42-.01-22.42c-2.22,0-4.57,0-7.02,0-38.89,0-104.4,2.09-134.51,72.65"/>
    </clipPath>
    <linearGradient id="linear-gradient-11" x1="-5706.21" y1="291.37" x2="-5705.58" y2="291.37" gradientTransform="translate(10763260.11 551091.57) scale(1886.23 -1886.23)" gradientUnits="userSpaceOnUse">
      <stop offset="0" stop-color="#0b0c0d"/>
      <stop offset=".03" stop-color="#0b0c0d"/>
      <stop offset=".09" stop-color="#0c1317"/>
      <stop offset=".19" stop-color="#0c171e"/>
      <stop offset=".46" stop-color="#0d1920"/>
      <stop offset=".5" stop-color="#0c1419"/>
      <stop offset=".6" stop-color="#0c0f12"/>
      <stop offset=".85" stop-color="#0c0e11"/>
      <stop offset="1" stop-color="#0c0e11"/>
    </linearGradient>
    <clipPath id="clippath-12">
      <path class="cls-15" d="M190.5,991.22c.19,0,.45-.02.58-.03l-.58-43.92v43.94Z"/>
    </clipPath>
    <linearGradient id="linear-gradient-12" x1="-5702.09" y1="305.91" x2="-5701.46" y2="305.91" gradientTransform="translate(-2721579.36 -145061.29) rotate(-180) scale(477.36 -477.36)" xlink:href="#linear-gradient-7"/>
    <clipPath id="clippath-13">
      <path class="cls-15" d="M190.5,991.22c.19,0,.45-.02.58-.03l-.58-43.92v43.94Z"/>
    </clipPath>
    <linearGradient id="linear-gradient-13" x1="-5706.21" y1="291.22" x2="-5705.58" y2="291.22" gradientTransform="translate(10762645.43 550239.2) scale(1886.12 -1886.12)" xlink:href="#linear-gradient-11"/>
    <clipPath id="clippath-14">
      <polygon class="cls-15" points="836.71 845.53 1387.85 845.53 1387.85 838.44 836.71 845.53"/>
    </clipPath>
    <linearGradient id="linear-gradient-14" x1="-5707.72" y1="294.62" x2="-5707.09" y2="294.62" gradientTransform="translate(-986788.78 19139267.61) rotate(90) scale(3353.14 -3353.14)" xlink:href="#linear-gradient-2"/>
    <clipPath id="clippath-15">
      <polygon class="cls-15" points="1387.85 775.17 1387.85 838.44 1575.69 836.03 1575.69 775.17 1387.85 775.17"/>
    </clipPath>
    <linearGradient id="linear-gradient-15" x1="-5707.72" y1="294.56" x2="-5707.09" y2="294.56" gradientTransform="translate(-986234.17 19139195.46) rotate(90) scale(3353.14 -3353.14)" xlink:href="#linear-gradient-2"/>
    <clipPath id="clippath-16">
      <polygon class="cls-15" points="1376.85 775.17 1376.85 838.44 1564.69 836.03 1564.69 775.17 1376.85 775.17"/>
    </clipPath>
    <linearGradient id="linear-gradient-16" x1="-5707.86" y1="292.3" x2="-5707.22" y2="292.3" gradientTransform="translate(22514201.51 1153731.26) scale(3944.32 -3944.32)" gradientUnits="userSpaceOnUse">
      <stop offset="0" stop-color="#ecf4f6"/>
      <stop offset=".17" stop-color="#ecf4f6"/>
      <stop offset=".17" stop-color="#e3ebed"/>
      <stop offset=".2" stop-color="#b1bbbd"/>
      <stop offset=".23" stop-color="#869193"/>
      <stop offset=".26" stop-color="#636f71"/>
      <stop offset=".29" stop-color="#485556"/>
      <stop offset=".32" stop-color="#354243"/>
      <stop offset=".35" stop-color="#293738"/>
      <stop offset=".38" stop-color="#263435"/>
      <stop offset="1" stop-color="#263435"/>
    </linearGradient>
    <clipPath id="clippath-17">
      <path class="cls-15" d="M779.55,775.17v.25c-25.86,1.44-46.02,24.24-42.63,51.16,2.48,19.71,18.35,36.07,37.99,39.07,14.49,2.21,27.89-2.43,37.56-11.16,6.6-5.96,15.35-8.96,24.25-8.96l551.14-7.09v-63.28h-608.3Z"/>
    </clipPath>
    <linearGradient id="linear-gradient-17" x1="-5707.72" y1="294.63" x2="-5707.09" y2="294.63" gradientTransform="translate(-986867.4 19139314.02) rotate(90) scale(3353.15 -3353.15)" xlink:href="#linear-gradient-2"/>
    <clipPath id="clippath-18">
      <path class="cls-15" d="M779.55,775.17v.25c-25.86,1.44-46.02,24.24-42.63,51.16,2.48,19.71,18.35,36.07,37.99,39.07,14.49,2.21,27.89-2.43,37.56-11.16,6.6-5.96,15.35-8.96,24.25-8.96l551.14-7.09v-63.28h-608.3Z"/>
    </clipPath>
    <linearGradient id="linear-gradient-18" x1="-5707.85" y1="292.3" x2="-5707.22" y2="292.3" gradientTransform="translate(22514131.81 1153749.47) scale(3944.31 -3944.31)" xlink:href="#linear-gradient-16"/>
    <linearGradient id="linear-gradient-19" x1="659.01" y1="852.02" x2="1105.68" y2="852.02" gradientUnits="userSpaceOnUse">
      <stop offset="0" stop-color="#212e34"/>
      <stop offset=".18" stop-color="#212e34"/>
      <stop offset=".52" stop-color="#101417"/>
    </linearGradient>
  </defs>
  <path class="cls-13" d="M1213.2,3062.61l-2.65-.26c-44.39-4.32-89.49-21.13-121.23-46.52-25.23-20.18-46.16-47.56-58.7-80.71-20.64-54.57-17.77-98.35-17.86-100.48l-.04-.9v-.9s2.67-277.96,2.67-277.96c1.19-124.64,27.48-199.57,28.6-202.7l.48-1.35.59-1.3c17.64-39.06,9.4-55.6,7.61-58.47l-4.33-8.99-31.97-49.67c-28.63-38.09-47.2-68.89-56.74-94.13-11.25-29.77-10.38-54.28,2.59-72.86,7.21-10.32,18.18-20.89,61.45-21.81,9.44-.2,16.8-.42,23.2.04l287.81-3.55c46.75.19,110.15-.13,132.31,29.57,12.73,17.06,14.26,25.31,6.57,52.81-2.81,10.04-7.1,17.6-8.98,20.67l-78.68,135.54c-21.74,27.55-4.94,60.63-4.95,66.67l20.22,64.59c15.37,49.09,23.19,100.22,23.19,151.66v271.26l-.14,1.55c-3.81,124.11-60.34,171.67-103.79,199.32-46.74,29.75-99.73,28.49-104.59,28.75l-2.66.14ZM1083.41,2832.33c.38,5.54,3.54,42.16,21.64,78.95,23.58,47.94,62.17,75.29,114.74,81.33,7.88-.99,34.66-5.52,61.79-23.57,41.84-27.83,66.1-74.7,72.11-139.34v-334.9l-42.22-134.83-.39-2.2c-1.94-10.81-.14-42.44,5.32-94.01l.8-7.5,85.85-147.89c-8.54-1.7-26.37-3.06-60.39,1.98l-2.36.35-303.01,3.74-4.96-1.57c-2.19-.63-4.79-1.16-7.35-1.54,3.19,9.04,10.39,24.4,26.55,48.64l2.93-1.74,51.27,86.11c12.61,14.63,38.16,56.68,4.48,132.65-2.98,9.13-23.15,74.62-24.15,178.58l-2.65,276.76Z"/>
  <path class="cls-13" d="M1271.99,2075.81h-156.57l-5.2-434.87c-.07-1.23-1.08-16.41-10.92-30.42-13.29-18.93-37.91-28.49-73.12-28.39l-792.28,1.99h-.15c-2.4-.02-59.42-.72-116.32-31.28-34.45-18.51-61.91-43.99-81.63-75.75C11.69,1438.29-.35,1390.7,0,1335.66v-.14s3.03-292.53,3.03-292.53c-.17-4.98-.17-18.62,3.72-36.12,6.13-27.57,19.28-52.18,38.02-71.16,16-16.21,36-28.45,59.45-36.39,14.85-5.03,31.2-8.34,48.88-9.93.5-26.51,7.6-47.53,21.14-62.54,10.63-11.78,29.83-24.91,61.53-22.04,4.5-.17,11.14,0,19.01,1.49,1.72-16.26,4.84-31.63,9.3-45.86,7.59-24.19,19.11-46.15,34.23-63.28,16.77-18.99,37.86-33.21,62.68-42.24,26.09-9.49,56.58-13.27,90.65-11.22h123.33l-.43,612.31-168.45-1.21-.9-.05c-2.85-.16-18.07-1.34-38.24-8.3-27.48-9.49-49.67-19.24-68.08-40.28-19.59-22.4-32.68-50.78-39.21-82.87-5.78,1.34-11.78,2.11-17.94,2.3l-.76.02h-.77c-3.08-.05-19.34-.6-36.54-7.35-20.7-8.13-35.28-22.23-42.22-40.22-.82,9.75-.91,21.4.15,35.29l.1,1.36v1.36s-.29,234.22-.29,234.22c.41,3.52,2.53,17.92,10.84,32.96,11.21,20.28,28.43,33.04,52.58,38.93l842.56.17,1.49.13c4.8.41,48.27,4.74,94.41,31.16,44.53,25.49,99.22,76.45,106.82,174.41l.1,1.29v1.3s1.78,445.17,1.78,445.17ZM1185.25,2005.13h15.78l-1.48-372.87c-4.38-52.43-27.72-91.5-69.37-116.13-29.94-17.71-59.92-22.31-66.24-23.11l-846.78-.17-3.62-.77c-59.83-12.68-90.16-49.53-105.06-78.21-15.52-29.86-17.51-56.91-17.69-59.89l-.06-1.06.29-235.6c-4.22-58.53,6.93-102.76,33.15-131.49,13.62-14.93,28.43-22.56,40.28-26.46-30.55,1.87-53.64,10.4-68.85,25.47-22.07,21.88-21.98,52.96-21.92,55.6l.12,1.44-.07.89-3.04,293.38c-.46,72.7,25.84,124.28,78.16,153.32,40.44,22.44,82.73,23.9,85.36,23.97l791.79-1.99c.22,0,.45,0,.67,0,76.94,0,115.03,34.17,133.45,62.88,19.79,30.84,20.73,61.7,20.77,65.59l4.37,365.21ZM1110.21,1640.53s0,.16,0,.34v-.34ZM410.83,1190.55l103.29.68-8.57-475.84h-56.13l-1.12-.07c-44.4-2.83-76.98,7.08-96.85,29.45-19.82,22.32-25.7,54.79-27.15,78.1-1.73,27.85,2.29,50.06,2.33,50.28l-.02-.1-67.44,19.94c-3.3-8.11-7.52-13.27-12.9-15.76-3.53-1.64-6.79-1.78-7.72-1.78l-3.5.44-4.44-.56c-2.09-.26-3.52-.26-4.4-.2-1.15,2.57-2.84,9.1-2.41,20.94.4,10.91,2.37,19.83,2.39,19.92l10.57,45.53-17-.81,7.72,90.61v.31c2.78,1.49,8.61,2.98,13.13,3.29,5.38-.37,8.97-2.33,12.2-6.63,2.51-3.33,3.91-7.08,3.91-7.1l69.52,11.25c-3.57,46.83,5.11,82.57,25.8,106.22,22.7,25.96,54.47,31.41,58.75,31.9ZM227.55,1053.05h0s0,0,0,0ZM73.66,1040.25h0s0,0,0,0ZM188.97,1025.92s0,0,0,0c0,0,0,0,0,0ZM238.31,875.45h0,0Z"/>
  <path class="cls-13" d="M1914.53,1982.51l-540.51-.73v-598.19l502.24,2.41c2.52.03,39.44-.13,61.84-21.7,5.92-5.7,10.4-12.54,13.47-20.65,6.44-16.97,4.72-36.11-4.89-51.51-.34-.55-.7-1.1-1.06-1.65-8.39-12.63-19.92-21.2-34.99-25.93-7.6-2.39-15.55-3.45-23.52-3.49l-1175.56-5.6-92.03.98v-226.55l.46-113.96.46-53.43v-131.96c-.11-9.77-.92-86.39-.92-86.39,0,0,63.47,1.05,111.77,2.55l1211.26,7.44c7.87.01,148.43,1.4,296.75,82.26,88.23,48.1,160.86,114.38,215.88,196.99,68.11,102.28,121.56,234.27,121.18,378.27l.07.98c.33,6.01,7.23,148.86-66.57,303.33-43.6,91.26-108.12,165.25-186.5,226.83-113.22,88.95-210.23,115.99-339.34,134.52-10.41,1.49-48.54,4.07-61.25,4.91-2.74.18-5.48.27-8.23.26ZM1444.7,1911.18l497.82.55c244.81-31.86,413.81-140.73,502.32-323.62,34.89-72.09,49.62-141.89,55.84-187.75,6.4-47.24,5.35-79.6,5.2-83.49-20.43-245.29-120.65-419.22-297.87-517-69.67-38.44-137.97-56.78-182.99-65.4-49.25-9.43-82.29-9.62-82.62-9.62h-.12s-.06,0-.06,0l-1216.99-7.48-2.83-.48c-31.33-5.33-41.88,1.1-44.36,3.2-3.49,2.95-3.89,7.97-3.93,9.15l.08,1.2-.09,2.02-8.11,186.29c-1.13,30.7,17.69,74.3,24.38,87.17l3.98,7.66v139.88l-.43,2.74c-2.98,18.87-1,27.4,0,30.22,1.2.07,2.85-.03,4.12-.28l5.41-1.9,4.48.55,1190.61,5.67,1.84.2c59.03,6.5,90.5,38.65,106.51,64.48,16.76,27.04,19.95,52.75,20.25,55.6l.24,2.21-.04,2.22c-.38,21.49-4.32,41.2-11.73,58.59-6.84,16.04-16.63,30.18-29.1,42.04-18.91,17.96-44.33,30.71-73.54,36.87-19.37,4.08-34.66,4.06-38.32,3.99l-429.96-2.05v456.57Z"/>
  <g class="cls-40">
    <rect class="cls-39" x="588.83" y="741.86" width="1766.82" height="1153.06" transform="translate(-296.04 435.87) rotate(-15.32)"/>
  </g>
  <g class="cls-18">
    <rect class="cls-8" x="535.36" y="527.57" width="2102.13" height="1575.5" transform="translate(-201.52 290.59) rotate(-9.84)"/>
  </g>
  <g class="cls-36">
    <rect class="cls-17" x="832.28" y="2329.81" width="589.28" height="622.18" transform="translate(-1488.25 1455.49) rotate(-42.51)"/>
  </g>
  <path class="cls-3" d="M1417.27,2078.28l-139.69-4.97c-43.02-1.53-86.09-1.29-129.09.72l-139.63,6.52c-19.15.89-30.55,21.06-20.98,37.12l90.12,151.35c4.44,7.45,7.76,15.46,10,23.76h99.31c4.45,0,8.5,2.56,10.42,6.58l.33.69h0c5.26,13.16,9.47,35.52,9.35,49.69l-3.01,352.54-50.29,51.76c-18.11,23.47-26.09,53.49-20.76,82.66l.13.72c5.62,30.25,34.04,51.02,64.59,55.36l.26-.31c-27.77-8.98-47.38-36.09-44.41-67.48,2.76-29.18,25.97-53.58,55-57.58,43.59-6.02,80.28,31.58,72.68,75.41-4,23.07-21.15,42.38-43.4,49.68-14.15,4.64-27.66,4-39.73.17l-.41.12-81.34,96.23c24.84,20.44,57.79,36.26,101.61,39.11,61.32-4.68,101.34-34.36,127.06-66.75,29.4-37.03,43.3-83.42,42.34-130.08l-6.35-307.13c.92-70.92-24.2-141.7-36.81-172.64-4.58-11.24-7.05-23.22-7.11-35.36v-.68c-.09-16.86,4.33-33.43,12.79-48.01l88.42-152.31c9.39-16.17-2.23-36.21-21.39-36.89"/>
  <polygon class="cls-33" points="538.97 679.05 524.07 679.05 538.97 1001.15 538.97 679.05"/>
  <g class="cls-23">
    <polygon class="cls-16" points="547.46 667.53 611.94 1218.41 448.55 1231.93 386.13 686.45 547.46 667.53"/>
  </g>
  <polygon class="cls-19" points="538.97 684.87 536.91 1220.42 481.35 1220.42 461.03 692.24 538.97 684.87"/>
  <path class="cls-34" d="M292.95,966.19v65.17c0,6.46-1.29,12.57-3.21,18.39v42.25c0,73.91,57.86,128.43,131.77,128.43h32.18l-1.07-257.58-159.67,3.36Z"/>
  <g class="cls-20">
    <polygon class="cls-32" points="333.78 606.71 579.7 756.41 408.59 1038.53 162.66 887.84 333.78 606.71"/>
  </g>
  <g class="cls-4">
    <rect class="cls-28" x="110.18" y="901.98" width="259.89" height="126.86" transform="translate(-746.22 1095.01) rotate(-83.52)"/>
  </g>
  <g class="cls-21">
    <rect class="cls-22" x="249.66" y="1001.66" width="83.38" height="12.62" transform="translate(-743.07 1183.66) rotate(-83.52)"/>
  </g>
  <g class="cls-11">
    <rect class="cls-29" x="254.13" y="900.16" width="74.43" height="47.03" transform="translate(-649.14 692.28) rotate(-58.67)"/>
  </g>
  <g class="cls-12">
    <rect class="cls-9" x="248.85" y="917.27" width="85" height="12.8" transform="translate(-659.31 1108.88) rotate(-83.52)"/>
  </g>
  <g class="cls-14">
    <rect class="cls-30" x="34.04" y="923.97" width="1201.17" height="1135.93"/>
  </g>
  <g class="cls-24">
    <rect class="cls-10" x="168.93" y="966.47" width="43.73" height="5.54" transform="translate(-793.79 1049.4) rotate(-83.52)"/>
  </g>
  <g class="cls-37">
    <rect class="cls-2" x="190.5" y="947.27" width=".58" height="43.94"/>
  </g>
  <g class="cls-26">
    <rect class="cls-25" x="840.16" y="791.38" width="544.24" height="101.21" transform="translate(-127.58 202.56) rotate(-9.84)"/>
  </g>
  <g class="cls-6">
    <rect class="cls-1" x="1383.83" y="759.57" width="195.89" height="94.46" transform="translate(-116.12 265.22) rotate(-9.84)"/>
  </g>
  <g class="cls-35">
    <rect class="cls-38" x="1376.85" y="775.17" width="187.84" height="63.28"/>
  </g>
  <g class="cls-5">
    <rect class="cls-27" x="730.43" y="719.91" width="660.53" height="203.2" transform="translate(-124.84 193.44) rotate(-9.84)"/>
  </g>
  <g class="cls-7">
    <rect class="cls-41" x="733.53" y="775.17" width="654.32" height="92.7"/>
  </g>
  <rect class="cls-15" x="73.66" width="2547.23" height="2547.23"/>
  <polygon class="cls-31" points="659.01 1022.21 659.01 681.83 684.61 681.83 659.01 1022.21"/>
</svg>