<?xml version="1.0" encoding="UTF-8"?>
<svg id="Layer_1" data-name="Layer 1" xmlns="http://www.w3.org/2000/svg" xmlns:xlink="http://www.w3.org/1999/xlink" viewBox="0 0 2722.65 3069.32">
  <defs>
    <style>
      .cls-1 {
        fill: url(#linear-gradient-15);
      }

      .cls-2 {
        fill: url(#linear-gradient-13);
      }

      .cls-3 {
        fill: #0a0c0f;
      }

      .cls-4 {
        clip-path: url(#clippath-6);
      }

      .cls-5 {
        clip-path: url(#clippath-17);
      }

      .cls-6 {
        clip-path: url(#clippath-15);
      }

      .cls-7 {
        clip-path: url(#clippath-18);
      }

      .cls-8 {
        fill: url(#linear-gradient-2);
      }

      .cls-9 {
        fill: url(#linear-gradient-10);
      }

      .cls-10 {
        fill: url(#linear-gradient-12);
      }

      .cls-11 {
        clip-path: url(#clippath-9);
      }

      .cls-12 {
        clip-path: url(#clippath-10);
      }

      .cls-13 {
        clip-path: url(#clippath-11);
      }

      .cls-14 {
        fill: none;
      }

      .cls-15 {
        fill: url(#linear-gradient-4);
      }

      .cls-16 {
        fill: url(#linear-gradient-3);
      }

      .cls-17 {
        clip-path: url(#clippath-1);
      }

      .cls-18 {
        fill: url(#linear-gradient-5);
      }

      .cls-19 {
        clip-path: url(#clippath-5);
      }

      .cls-20 {
        clip-path: url(#clippath-8);
      }

      .cls-21 {
        fill: url(#linear-gradient-8);
      }

      .cls-22 {
        clip-path: url(#clippath-3);
      }

      .cls-23 {
        clip-path: url(#clippath-12);
      }

      .cls-24 {
        fill: url(#linear-gradient-14);
      }

      .cls-25 {
        clip-path: url(#clippath-14);
      }

      .cls-26 {
        fill: url(#linear-gradient-17);
      }

      .cls-27 {
        fill: url(#linear-gradient-7);
      }

      .cls-28 {
        fill: url(#linear-gradient-9);
      }

      .cls-29 {
        fill: url(#linear-gradient-11);
      }

      .cls-30 {
        fill: url(#linear-gradient-19);
      }

      .cls-31 {
        fill: url(#linear-gradient-6);
      }

      .cls-32 {
        fill: #43482f;
      }

      .cls-33 {
        fill: #101116;
      }

      .cls-34 {
        clip-path: url(#clippath-16);
      }

      .cls-35 {
        clip-path: url(#clippath-2);
      }

      .cls-36 {
        clip-path: url(#clippath-13);
      }

      .cls-37 {
        fill: url(#linear-gradient-16);
      }

      .cls-38 {
        fill: url(#linear-gradient);
      }

      .cls-39 {
        clip-path: url(#clippath);
      }

      .cls-40 {
        fill: url(#linear-gradient-18);
      }
    </style>
    <clipPath id="clippath">
      <path class="cls-14" d="M1799.95,943.45l-1091.83,11.45c-77.21,3.96-83.15,67.31-83.15,67.31v195.73h0l1237.5,7.85c34.31.67,57.18,18.93,67.8,29.8,10.69,10.95,28.54,34.51,28.12,69.21-.65,53.02-46.39,97.39-99.02,96.62l-484.05-2.31v274.27h399.74c56.24,0,112.39-8.31,165.43-27.03,310.95-109.79,254.48-442.18,254.48-442.18-31.58-147-135.62-217.34-222.87-250.89-53.12-20.42-109.82-29.85-166.72-29.85-1.81,0-3.61,0-5.42.03"/>
    </clipPath>
    <linearGradient id="linear-gradient" x1="-5740.85" y1="295.09" x2="-5740.21" y2="295.09" gradientTransform="translate(-624141.06 12171233.45) rotate(90) scale(2119.95 -2119.95)" gradientUnits="userSpaceOnUse">
      <stop offset="0" stop-color="#0d1216"/>
      <stop offset=".33" stop-color="#0d1216"/>
      <stop offset=".36" stop-color="#181e22"/>
      <stop offset=".4" stop-color="#272f32"/>
      <stop offset=".44" stop-color="#2d3538"/>
      <stop offset="1" stop-color="#2d3538"/>
    </linearGradient>
    <clipPath id="clippath-1">
      <path class="cls-14" d="M740.86,865.65c-19.64-3-35.51-19.36-37.99-39.07-3.39-26.92,16.77-49.72,42.63-51.16v-.25h796.14v60.86l-187.84,2.42v7.09h-551.14c-8.9,0-17.65,3-24.25,8.96-8.05,7.27-18.7,11.7-30.4,11.7-2.35,0-4.74-.18-7.16-.55M624.97,1022.21s5.94-63.35,83.15-67.31l1091.83-11.45c58.72-.62,117.34,8.75,172.15,29.82,87.24,33.54,191.29,103.88,222.87,250.89,0,0,56.47,332.4-254.48,442.18-53.03,18.72-109.18,27.03-165.43,27.03h-399.74v253.11l479.11,2.28c2.3.03,4.56.04,6.86.04,352.85-.01,641.47-263.47,645.82-617.27,2.12-172.28-63.26-335.36-184.06-459.18-120.82-123.82-287.5-182.62-459.79-184.73l-1212.68-5.79h-.21"/>
    </clipPath>
    <linearGradient id="linear-gradient-2" x1="-5741.77" y1="294.54" x2="-5741.13" y2="294.54" gradientTransform="translate(-986078.52 19253240.24) rotate(90) scale(3353.12 -3353.12)" gradientUnits="userSpaceOnUse">
      <stop offset="0" stop-color="#212e34"/>
      <stop offset=".18" stop-color="#212e34"/>
      <stop offset=".52" stop-color="#101417"/>
      <stop offset="1" stop-color="#101417"/>
    </linearGradient>
    <clipPath id="clippath-2">
      <path class="cls-14" d="M1053.96,2292.78c2.11,7.83,3.26,15.92,3.31,24.1v.64c.07,12.15-2.27,24.18-6.73,35.48-12.27,31.09-36.58,102.12-34.88,173.01l-2.94,307.18c-.45,46.67,13.97,92.91,43.78,129.6,7.46,9.18,16.24,18.03,26.19,26.22l81.34-96.23c-30.55-4.34-58.97-25.12-64.59-55.36l-.13-.72c-5.33-29.16,2.65-59.19,20.76-82.66l50.29-51.76,3.01-352.53c.12-14.17-4.09-36.53-9.35-49.69l-.25-.53c-1.96-4.12-6.11-6.74-10.67-6.74h-99.13Z"/>
    </clipPath>
    <linearGradient id="linear-gradient-3" x1="-5739.66" y1="294.34" x2="-5739.02" y2="294.34" gradientTransform="translate(-478042.38 9345283.61) rotate(90) scale(1627.81 -1627.81)" gradientUnits="userSpaceOnUse">
      <stop offset="0" stop-color="#2b3331"/>
      <stop offset=".31" stop-color="#29312f"/>
      <stop offset=".43" stop-color="#232a2a"/>
      <stop offset=".53" stop-color="#181d20"/>
      <stop offset=".58" stop-color="#0d1117"/>
      <stop offset="1" stop-color="#0d1117"/>
    </linearGradient>
    <clipPath id="clippath-3">
      <polygon class="cls-14" points="415.21 679.05 418.58 962.84 419.65 1220.42 502.87 1220.42 502.87 1207.93 504.93 1001.15 502.87 1207.93 504.93 679.05 415.21 679.05"/>
    </clipPath>
    <linearGradient id="linear-gradient-4" x1="-5739.3" y1="297.45" x2="-5738.66" y2="297.45" gradientTransform="translate(446719.05 6862346.46) rotate(83.31) scale(1196.48 -1196.48)" gradientUnits="userSpaceOnUse">
      <stop offset="0" stop-color="#faad18"/>
      <stop offset=".76" stop-color="#bc4827"/>
      <stop offset="1" stop-color="#bc4827"/>
    </linearGradient>
    <linearGradient id="linear-gradient-5" x1="-5739.37" y1="297.5" x2="-5738.73" y2="297.5" gradientTransform="translate(-995617.54 6804391.33) rotate(95.36) scale(1196.48 -1196.48)" xlink:href="#linear-gradient-4"/>
    <clipPath id="clippath-5">
      <path class="cls-14" d="M389.52,679.05c-73.91,0-133.82,60.91-133.82,134.82v67.21c1.91,5.82,3.21,11.93,3.21,18.39v66.73l159.67-3.36,3.13-284.55-32.18.76Z"/>
    </clipPath>
    <linearGradient id="linear-gradient-6" x1="-5734.07" y1="292.51" x2="-5733.43" y2="292.51" gradientTransform="translate(3533662.27 2406462.09) rotate(31.33) scale(744.51 -744.51)" gradientUnits="userSpaceOnUse">
      <stop offset="0" stop-color="#0c1214"/>
      <stop offset=".02" stop-color="#151f22"/>
      <stop offset=".06" stop-color="#1c2a2e"/>
      <stop offset=".11" stop-color="#203035"/>
      <stop offset=".24" stop-color="#223237"/>
      <stop offset="1" stop-color="#223237"/>
    </linearGradient>
    <clipPath id="clippath-6">
      <path class="cls-14" d="M156.46,883.52v63.76l.58,43.92c-.13,0-.39.02-.58.03v56.09c0,23.89,19.36,43.25,43.25,43.25,26.23,0,48.22-17.18,55.99-40.81v-168.66c-7.77-23.63-29.76-40.81-55.99-40.81-23.88,0-43.25,19.36-43.25,43.25"/>
    </clipPath>
    <linearGradient id="linear-gradient-7" x1="-5736.14" y1="305.86" x2="-5735.5" y2="305.86" gradientTransform="translate(-2737814.1 -145036.22) rotate(-180) scale(477.35 -477.35)" gradientUnits="userSpaceOnUse">
      <stop offset="0" stop-color="#0c1214"/>
      <stop offset=".03" stop-color="#0c1214"/>
      <stop offset=".06" stop-color="#322815"/>
      <stop offset=".09" stop-color="#5b4016"/>
      <stop offset=".13" stop-color="#805617"/>
      <stop offset=".18" stop-color="#a16919"/>
      <stop offset=".23" stop-color="#bc7919"/>
      <stop offset=".28" stop-color="#d2861a"/>
      <stop offset=".35" stop-color="#e3901b"/>
      <stop offset=".43" stop-color="#ef961b"/>
      <stop offset=".54" stop-color="#f69a1b"/>
      <stop offset=".85" stop-color="#f89c1c"/>
      <stop offset=".96" stop-color="#070909"/>
      <stop offset="1" stop-color="#070909"/>
    </linearGradient>
    <clipPath id="clippath-8">
      <path class="cls-14" d="M255.7,966.26v83.48c1.91-5.82,3.21-11.93,3.21-18.39v-65.17l-3.21.07Z"/>
    </clipPath>
    <linearGradient id="linear-gradient-8" x1="-5736.14" y1="305.79" x2="-5735.5" y2="305.79" gradientTransform="translate(-2737735.32 -144964.75) rotate(-180) scale(477.36 -477.36)" xlink:href="#linear-gradient-7"/>
    <clipPath id="clippath-9">
      <path class="cls-14" d="M255.7,966.26l3.21-.07v-66.73c0-6.46-1.29-12.57-3.21-18.39v85.18Z"/>
    </clipPath>
    <linearGradient id="linear-gradient-9" x1="-5734.07" y1="292.61" x2="-5733.43" y2="292.61" gradientTransform="translate(-217591.65 4269911.28) rotate(90) scale(744.51 -744.51)" xlink:href="#linear-gradient-6"/>
    <clipPath id="clippath-10">
      <path class="cls-14" d="M255.7,966.26l3.21-.07v-66.73c0-6.46-1.29-12.57-3.21-18.39v85.18Z"/>
    </clipPath>
    <linearGradient id="linear-gradient-10" x1="-5736.14" y1="305.8" x2="-5735.5" y2="305.8" gradientTransform="translate(-2737815.62 -145051.71) rotate(180) scale(477.36 -477.36)" xlink:href="#linear-gradient-7"/>
    <clipPath id="clippath-11">
      <path class="cls-14" d="M14.92,996.62c-8.59,20.12-13.02,42.79-13.18,67.4l-1.74,278.71.03.93c2.42,67.97,47.03,198.31,198.58,205.11l1.06.04,816.43-2.1h.25c51.6,0,93.68,41.91,93.86,93.54l9.69,390.3c.13,5.42,4.57,9.73,9.99,9.71l64.12-.22h0c4.02-.24,7.15-3.57,7.14-7.6l-1.34-392.5c-.34-100.92-82.59-182.83-183.45-182.83h-.48l-814.24,2.09c-101.85-5.21-111.21-103.88-112.03-118.08l1.73-276.56c.08-12.64,2.09-23.68,5.99-32.79,15.84-37.13,52.91-40.3,59.14-40.58v-44.82s-.01-22.42-.01-22.42c-2.22,0-4.57,0-7.02,0-38.89,0-104.4,2.09-134.51,72.65"/>
    </clipPath>
    <linearGradient id="linear-gradient-11" x1="-5740.26" y1="291.37" x2="-5739.62" y2="291.37" gradientTransform="translate(10827439.08 551091.57) scale(1886.23 -1886.23)" gradientUnits="userSpaceOnUse">
      <stop offset="0" stop-color="#0b0c0d"/>
      <stop offset=".03" stop-color="#0b0c0d"/>
      <stop offset=".09" stop-color="#0c1317"/>
      <stop offset=".19" stop-color="#0c171e"/>
      <stop offset=".46" stop-color="#0d1920"/>
      <stop offset=".5" stop-color="#0c1419"/>
      <stop offset=".6" stop-color="#0c0f12"/>
      <stop offset=".85" stop-color="#0c0e11"/>
      <stop offset="1" stop-color="#0c0e11"/>
    </linearGradient>
    <clipPath id="clippath-12">
      <path class="cls-14" d="M156.46,991.22c.19,0,.45-.02.58-.03l-.58-43.92v43.94Z"/>
    </clipPath>
    <linearGradient id="linear-gradient-12" x1="-5736.14" y1="305.91" x2="-5735.5" y2="305.91" gradientTransform="translate(-2737864.07 -145061.29) rotate(-180) scale(477.36 -477.36)" xlink:href="#linear-gradient-7"/>
    <clipPath id="clippath-13">
      <path class="cls-14" d="M156.46,991.22c.19,0,.45-.02.58-.03l-.58-43.92v43.94Z"/>
    </clipPath>
    <linearGradient id="linear-gradient-13" x1="-5740.26" y1="291.22" x2="-5739.62" y2="291.22" gradientTransform="translate(10826820.74 550239.2) scale(1886.12 -1886.12)" xlink:href="#linear-gradient-11"/>
    <clipPath id="clippath-14">
      <polygon class="cls-14" points="802.67 845.53 1353.81 845.53 1353.81 838.44 802.67 845.53"/>
    </clipPath>
    <linearGradient id="linear-gradient-14" x1="-5741.77" y1="294.62" x2="-5741.13" y2="294.62" gradientTransform="translate(-986822.76 19253418.78) rotate(90) scale(3353.14 -3353.14)" xlink:href="#linear-gradient-2"/>
    <clipPath id="clippath-15">
      <polygon class="cls-14" points="1353.81 775.17 1353.81 838.44 1541.65 836.03 1541.65 775.17 1353.81 775.17"/>
    </clipPath>
    <linearGradient id="linear-gradient-15" x1="-5741.77" y1="294.56" x2="-5741.13" y2="294.56" gradientTransform="translate(-986268.31 19253346.59) rotate(90) scale(3353.14 -3353.14)" xlink:href="#linear-gradient-2"/>
    <clipPath id="clippath-16">
      <polygon class="cls-14" points="1342.81 775.17 1342.81 838.44 1530.65 836.03 1530.65 775.17 1342.81 775.17"/>
    </clipPath>
    <linearGradient id="linear-gradient-16" x1="-5741.9" y1="292.3" x2="-5741.26" y2="292.3" gradientTransform="translate(22648444.24 1153731.26) scale(3944.32 -3944.32)" gradientUnits="userSpaceOnUse">
      <stop offset="0" stop-color="#ecf4f6"/>
      <stop offset=".17" stop-color="#ecf4f6"/>
      <stop offset=".17" stop-color="#e3ebed"/>
      <stop offset=".2" stop-color="#b1bbbd"/>
      <stop offset=".23" stop-color="#869193"/>
      <stop offset=".26" stop-color="#636f71"/>
      <stop offset=".29" stop-color="#485556"/>
      <stop offset=".32" stop-color="#354243"/>
      <stop offset=".35" stop-color="#293738"/>
      <stop offset=".38" stop-color="#263435"/>
      <stop offset="1" stop-color="#263435"/>
    </linearGradient>
    <clipPath id="clippath-17">
      <path class="cls-14" d="M745.51,775.17v.25c-25.86,1.44-46.02,24.24-42.63,51.16,2.48,19.71,18.35,36.07,37.99,39.07,14.49,2.21,27.89-2.43,37.56-11.16,6.6-5.96,15.35-8.96,24.25-8.96l551.14-7.09v-63.28h-608.3Z"/>
    </clipPath>
    <linearGradient id="linear-gradient-17" x1="-5741.77" y1="294.63" x2="-5741.13" y2="294.63" gradientTransform="translate(-986901.42 19253465.42) rotate(90) scale(3353.15 -3353.15)" xlink:href="#linear-gradient-2"/>
    <clipPath id="clippath-18">
      <path class="cls-14" d="M745.51,775.17v.25c-25.86,1.44-46.02,24.24-42.63,51.16,2.48,19.71,18.35,36.07,37.99,39.07,14.49,2.21,27.89-2.43,37.56-11.16,6.6-5.96,15.35-8.96,24.25-8.96l551.14-7.09v-63.28h-608.3Z"/>
    </clipPath>
    <linearGradient id="linear-gradient-18" x1="-5741.9" y1="292.3" x2="-5741.26" y2="292.3" gradientTransform="translate(22648374.14 1153749.47) scale(3944.31 -3944.31)" xlink:href="#linear-gradient-16"/>
    <linearGradient id="linear-gradient-19" x1="624.97" y1="852.02" x2="1071.64" y2="852.02" gradientUnits="userSpaceOnUse">
      <stop offset="0" stop-color="#212e34"/>
      <stop offset=".18" stop-color="#212e34"/>
      <stop offset=".52" stop-color="#101417"/>
    </linearGradient>
  </defs>
  <g class="cls-39">
    <rect class="cls-38" x="554.79" y="741.86" width="1766.82" height="1153.06" transform="translate(-297.25 426.87) rotate(-15.32)"/>
  </g>
  <g class="cls-17">
    <rect class="cls-8" x="501.32" y="527.57" width="2102.13" height="1575.5" transform="translate(-202.02 284.77) rotate(-9.84)"/>
  </g>
  <g class="cls-35">
    <rect class="cls-16" x="798.24" y="2329.81" width="589.28" height="622.18" transform="translate(-1497.19 1432.49) rotate(-42.51)"/>
  </g>
  <path class="cls-3" d="M1383.23,2078.28l-139.69-4.97c-43.02-1.53-86.09-1.29-129.09.72l-139.63,6.52c-19.15.89-30.55,21.06-20.98,37.12l90.12,151.35c4.44,7.45,7.76,15.46,10,23.76h99.31c4.45,0,8.5,2.56,10.42,6.58l.33.69h0c5.26,13.16,9.47,35.52,9.35,49.69l-3.01,352.54-50.29,51.76c-18.11,23.47-26.09,53.49-20.76,82.66l.13.72c5.62,30.25,34.04,51.02,64.59,55.36l.26-.31c-27.77-8.98-47.38-36.09-44.41-67.48,2.76-29.18,25.97-53.58,55-57.58,43.59-6.02,80.28,31.58,72.68,75.41-4,23.07-21.15,42.38-43.4,49.68-14.15,4.64-27.66,4-39.73.17l-.41.12-81.34,96.23c24.84,20.44,57.79,36.26,101.61,39.11,61.32-4.68,101.34-34.36,127.06-66.75,29.4-37.03,43.3-83.42,42.34-130.08l-6.35-307.13c.92-70.92-24.2-141.7-36.81-172.64-4.58-11.24-7.05-23.22-7.11-35.36v-.68c-.09-16.86,4.33-33.43,12.79-48.01l88.42-152.31c9.39-16.17-2.23-36.21-21.39-36.89"/>
  <polygon class="cls-32" points="504.93 679.05 490.03 679.05 504.93 1001.15 504.93 679.05"/>
  <g class="cls-22">
    <polygon class="cls-15" points="513.42 667.53 577.9 1218.41 414.51 1231.93 352.09 686.45 513.42 667.53"/>
  </g>
  <polygon class="cls-18" points="504.93 684.87 502.87 1220.42 447.31 1220.42 426.99 692.24 504.93 684.87"/>
  <path class="cls-33" d="M258.91,966.19v65.17c0,6.46-1.29,12.57-3.21,18.39v42.25c0,73.91,57.86,128.43,131.77,128.43h32.18l-1.07-257.58-159.67,3.36Z"/>
  <g class="cls-19">
    <polygon class="cls-31" points="299.73 606.71 545.66 756.41 374.54 1038.53 128.61 887.84 299.73 606.71"/>
  </g>
  <g class="cls-4">
    <rect class="cls-27" x="76.14" y="901.98" width="259.89" height="126.86" transform="translate(-776.42 1061.19) rotate(-83.52)"/>
  </g>
  <g class="cls-20">
    <rect class="cls-21" x="215.61" y="1001.66" width="83.38" height="12.62" transform="translate(-773.27 1149.84) rotate(-83.52)"/>
  </g>
  <g class="cls-11">
    <rect class="cls-28" x="220.09" y="900.16" width="74.43" height="47.03" transform="translate(-665.48 663.2) rotate(-58.67)"/>
  </g>
  <g class="cls-12">
    <rect class="cls-9" x="214.8" y="917.27" width="85" height="12.8" transform="translate(-689.51 1075.05) rotate(-83.52)"/>
  </g>
  <g class="cls-13">
    <rect class="cls-29" y="923.97" width="1201.17" height="1135.93"/>
  </g>
  <g class="cls-23">
    <rect class="cls-10" x="134.89" y="966.47" width="43.73" height="5.54" transform="translate(-823.99 1015.58) rotate(-83.52)"/>
  </g>
  <g class="cls-36">
    <rect class="cls-2" x="156.46" y="947.27" width=".58" height="43.94"/>
  </g>
  <g class="cls-25">
    <rect class="cls-24" x="806.12" y="791.38" width="544.24" height="101.21" transform="translate(-128.08 196.74) rotate(-9.84)"/>
  </g>
  <g class="cls-6">
    <rect class="cls-1" x="1349.78" y="759.57" width="195.89" height="94.46" transform="translate(-116.62 259.4) rotate(-9.84)"/>
  </g>
  <g class="cls-34">
    <rect class="cls-37" x="1342.81" y="775.17" width="187.84" height="63.28"/>
  </g>
  <g class="cls-5">
    <rect class="cls-26" x="696.38" y="719.91" width="660.53" height="203.2" transform="translate(-125.34 187.62) rotate(-9.84)"/>
  </g>
  <g class="cls-7">
    <rect class="cls-40" x="699.49" y="775.17" width="654.32" height="92.7"/>
  </g>
  <rect class="cls-14" x="39.62" width="2547.23" height="2547.23"/>
  <polygon class="cls-30" points="624.97 1022.21 624.97 681.83 650.57 681.83 624.97 1022.21"/>
</svg>