<svg width="2577" height="2420" viewBox="0 0 2577 2420" fill="none" xmlns="http://www.w3.org/2000/svg">
<path d="M1213.21 2419.61L1210.56 2419.35C1166.17 2415.03 1121.07 2398.22 1089.33 2372.83C1064.1 2352.65 1043.17 2325.27 1030.63 2292.12C1009.99 2237.55 1012.86 2193.77 1012.77 2191.64L1012.73 2190.74V2189.84L1015.4 1911.88C1016.59 1787.24 1042.88 1712.31 1044 1709.18L1044.48 1707.83L1045.07 1706.53C1062.71 1667.47 1054.47 1650.93 1052.68 1648.06L1048.35 1639.07L1016.38 1589.4C987.749 1551.31 969.179 1520.51 959.639 1495.27C948.389 1465.5 949.259 1440.99 962.229 1422.41C969.439 1412.09 980.409 1401.52 1023.68 1400.6C1033.12 1400.4 1040.48 1400.18 1046.88 1400.64L1334.69 1397.09C1381.44 1397.28 1444.84 1396.96 1467 1426.66C1479.73 1443.72 1481.26 1451.97 1473.57 1479.47C1470.76 1489.51 1466.47 1497.07 1464.59 1500.14L1385.91 1635.68C1364.17 1663.23 1380.97 1696.31 1380.96 1702.35L1401.18 1766.94C1416.55 1816.03 1424.37 1867.16 1424.37 1918.6V2189.86L1424.23 2191.41C1420.42 2315.52 1363.89 2363.08 1320.44 2390.73C1273.7 2420.48 1220.71 2419.22 1215.85 2419.48L1213.19 2419.62L1213.21 2419.61ZM1083.42 2189.33C1083.8 2194.87 1086.96 2231.49 1105.06 2268.28C1128.64 2316.22 1167.23 2343.57 1219.8 2349.61C1227.68 2348.62 1254.46 2344.09 1281.59 2326.04C1323.43 2298.21 1347.69 2251.34 1353.7 2186.7V1851.8L1311.48 1716.97L1311.09 1714.77C1309.15 1703.96 1310.95 1672.33 1316.41 1620.76L1317.21 1613.26L1403.06 1465.37C1394.52 1463.67 1376.69 1462.31 1342.67 1467.35L1340.31 1467.7L1037.3 1471.44L1032.34 1469.87C1030.15 1469.24 1027.55 1468.71 1024.99 1468.33C1028.18 1477.37 1035.38 1492.73 1051.54 1516.97L1054.47 1515.23L1105.74 1601.34C1118.35 1615.97 1143.9 1658.02 1110.22 1733.99C1107.24 1743.12 1087.07 1808.61 1086.07 1912.57L1083.42 2189.33Z" fill="white"/>
<path d="M1272 1432.81H1115.43L1110.23 997.941C1110.16 996.711 1109.15 981.531 1099.31 967.521C1086.02 948.591 1061.4 939.031 1026.19 939.131L233.907 941.121H233.757C231.357 941.101 174.337 940.401 117.437 909.841C82.9874 891.331 55.5274 865.851 35.8074 834.091C11.6974 795.291 -0.342584 747.701 0.00741616 692.661V692.521L3.03742 399.991C2.86742 395.011 2.86742 381.371 6.75742 363.871C12.8874 336.301 26.0374 311.691 44.7774 292.711C60.7774 276.501 80.7774 264.261 104.227 256.321C119.077 251.291 135.427 247.981 153.107 246.391C153.607 219.881 160.707 198.861 174.247 183.851C184.877 172.071 204.077 158.941 235.777 161.811C240.277 161.641 246.917 161.811 254.787 163.301C256.507 147.041 259.627 131.671 264.087 117.441C271.677 93.2514 283.197 71.2914 298.317 54.1614C315.087 35.1714 336.177 20.9514 360.997 11.9214C387.087 2.43141 417.577 -1.34856 451.647 0.701443H574.977L574.547 613.011L406.097 611.801L405.197 611.751C402.347 611.591 387.127 610.411 366.957 603.451C339.477 593.961 317.287 584.211 298.877 563.171C279.287 540.771 266.197 512.391 259.667 480.301C253.887 481.641 247.887 482.411 241.727 482.601L240.967 482.621H240.197C237.117 482.571 220.857 482.021 203.657 475.271C182.957 467.141 168.377 453.041 161.437 435.051C160.617 444.801 160.527 456.451 161.587 470.341L161.687 471.701V473.061L161.397 707.281C161.807 710.801 163.927 725.201 172.237 740.241C183.447 760.521 200.667 773.281 224.817 779.171L1067.38 779.341L1068.87 779.471C1073.67 779.881 1117.14 784.211 1163.28 810.631C1207.81 836.121 1262.5 887.081 1270.1 985.041L1270.2 986.331V987.631L1271.98 1432.8L1272 1432.81ZM1185.26 1362.13H1201.04L1199.56 989.261C1195.18 936.831 1171.84 897.761 1130.19 873.131C1100.25 855.421 1070.27 850.821 1063.95 850.021L217.167 849.851L213.547 849.081C153.717 836.401 123.387 799.551 108.487 770.871C92.9674 741.011 90.9774 713.961 90.7974 710.981L90.7374 709.921L91.0274 474.321C86.8074 415.791 97.9574 371.561 124.177 342.831C137.797 327.901 152.607 320.271 164.457 316.371C133.907 318.241 110.817 326.771 95.6074 341.841C73.5374 363.721 73.6274 394.801 73.6874 397.441L73.8074 398.881L73.7374 399.771L70.6974 693.151C70.2374 765.851 96.5374 817.431 148.857 846.471C189.297 868.911 231.587 870.371 234.217 870.441L1026.01 868.451C1026.23 868.451 1026.46 868.451 1026.68 868.451C1103.62 868.451 1141.71 902.621 1160.13 931.331C1179.92 962.171 1180.86 993.031 1180.9 996.921L1185.27 1362.13H1185.26ZM1110.22 997.531C1110.22 997.531 1110.22 997.691 1110.22 997.871V997.531ZM410.837 547.551L514.127 548.231L505.557 72.3914H449.427L448.307 72.3214C403.907 69.4914 371.327 79.4015 351.457 101.771C331.637 124.091 325.757 156.561 324.307 179.871C322.577 207.721 326.597 229.931 326.637 230.151L326.617 230.051L259.177 249.991C255.877 241.881 251.657 236.721 246.277 234.231C242.747 232.591 239.487 232.451 238.557 232.451L235.057 232.891L230.617 232.331C228.527 232.071 227.097 232.071 226.217 232.131C225.067 234.701 223.377 241.231 223.807 253.071C224.207 263.981 226.177 272.901 226.197 272.991L236.767 318.521L219.767 317.711L227.487 408.321V408.631C230.267 410.121 236.097 411.611 240.617 411.921C245.997 411.551 249.587 409.591 252.817 405.291C255.327 401.961 256.727 398.211 256.727 398.191L326.247 409.441C322.677 456.271 331.357 492.011 352.047 515.661C374.747 541.621 406.517 547.071 410.797 547.561L410.837 547.551Z" fill="white"/>
<path d="M1914.54 1339.51L1374.03 1338.78V740.59L1876.27 743C1878.79 743.03 1915.71 742.87 1938.11 721.3C1944.03 715.6 1948.51 708.76 1951.58 700.65C1958.02 683.68 1956.3 664.54 1946.69 649.14C1946.35 648.59 1945.99 648.04 1945.63 647.49C1937.24 634.86 1925.71 626.29 1910.64 621.56C1903.04 619.17 1895.09 618.11 1887.12 618.07L711.557 612.47L619.527 613.45V386.9L619.987 272.94L620.447 219.51V87.5502C620.337 77.7802 619.527 1.16016 619.527 1.16016C619.527 1.16016 682.997 2.21021 731.297 3.71021L1942.56 11.1502C1950.43 11.1602 2090.99 12.5502 2239.31 93.4102C2327.54 141.51 2400.17 207.79 2455.19 290.4C2523.3 392.68 2576.75 524.67 2576.37 668.67L2576.44 669.65C2576.77 675.66 2583.67 818.51 2509.87 972.98C2466.27 1064.24 2401.75 1138.23 2323.37 1199.81C2210.15 1288.76 2113.14 1315.8 1984.03 1334.33C1973.62 1335.82 1935.49 1338.4 1922.78 1339.24C1920.04 1339.42 1917.3 1339.51 1914.55 1339.5L1914.54 1339.51ZM1444.71 1268.18L1942.53 1268.73C2187.34 1236.87 2356.34 1128 2444.85 945.11C2479.74 873.02 2494.47 803.22 2500.69 757.36C2507.09 710.12 2506.04 677.76 2505.89 673.87C2485.46 428.58 2385.24 254.65 2208.02 156.87C2138.35 118.43 2070.05 100.09 2025.03 91.4702C1975.78 82.0402 1942.74 81.8502 1942.41 81.8502H1942.29H1942.23L725.237 74.3702L722.407 73.8902C691.077 68.5602 680.527 74.9902 678.047 77.0902C674.557 80.0402 674.157 85.0602 674.117 86.2402L674.197 87.4402L674.107 89.4602L665.997 275.75C664.867 306.45 683.687 350.05 690.377 362.92L694.357 370.58V510.46L693.927 513.2C690.947 532.07 692.927 540.6 693.927 543.42C695.127 543.49 696.777 543.39 698.047 543.14L703.457 541.24L707.937 541.79L1898.55 547.46L1900.39 547.66C1959.42 554.16 1990.89 586.31 2006.9 612.14C2023.66 639.18 2026.85 664.89 2027.15 667.74L2027.39 669.95L2027.35 672.17C2026.97 693.66 2023.03 713.37 2015.62 730.76C2008.78 746.8 1998.99 760.94 1986.52 772.8C1967.61 790.76 1942.19 803.51 1912.98 809.67C1893.61 813.75 1878.32 813.73 1874.66 813.66L1444.7 811.61V1268.18H1444.71Z" fill="white"/>
<mask id="mask0_923_207" style="mask-type:luminance" maskUnits="userSpaceOnUse" x="659" y="300" width="1575" height="751">
<path d="M1834 300.45L742.168 311.9C664.958 315.86 659.018 379.21 659.018 379.21V574.94L1896.52 582.79C1930.83 583.46 1953.7 601.72 1964.32 612.59C1975.01 623.54 1992.86 647.1 1992.44 681.8C1991.79 734.82 1946.05 779.19 1893.42 778.42L1409.37 776.11V1050.38H1809.11C1865.35 1050.38 1921.5 1042.07 1974.54 1023.35C2285.49 913.56 2229.02 581.17 2229.02 581.17C2197.44 434.17 2093.4 363.83 2006.15 330.28C1953.03 309.86 1896.33 300.43 1839.43 300.43C1837.62 300.43 1835.82 300.43 1834.01 300.46" fill="white"/>
</mask>
<g mask="url(#mask0_923_207)">
<path d="M2171.92 -114.018L467.881 352.793L772.531 1464.88L2476.57 998.068L2171.92 -114.018Z" fill="url(#paint0_linear_923_207)"/>
</g>
<mask id="mask1_923_207" style="mask-type:luminance" maskUnits="userSpaceOnUse" x="659" y="38" width="1883" height="1268">
<path d="M774.918 222.648C755.278 219.648 739.408 203.288 736.928 183.578C733.538 156.658 753.698 133.858 779.558 132.418V132.168H1575.7V193.028L1387.86 195.448V202.538H836.718C827.818 202.538 819.068 205.538 812.468 211.498C804.418 218.768 793.768 223.198 782.068 223.198C779.718 223.198 777.328 223.018 774.908 222.648M659.018 379.208C659.018 379.208 664.958 315.858 742.168 311.898L1834 300.448C1892.72 299.828 1951.34 309.198 2006.15 330.268C2093.39 363.808 2197.44 434.148 2229.02 581.158C2229.02 581.158 2285.49 913.558 1974.54 1023.34C1921.51 1042.06 1865.36 1050.37 1809.11 1050.37H1409.37V1303.48L1888.48 1305.76C1890.78 1305.79 1893.04 1305.8 1895.34 1305.8C2248.19 1305.79 2536.81 1042.33 2541.16 688.528C2543.28 516.248 2477.9 353.168 2357.1 229.348C2236.28 105.528 2069.6 46.7281 1897.31 44.6181L684.628 38.8281H684.418" fill="white"/>
</mask>
<g mask="url(#mask1_923_207)">
<path d="M2487.34 -283.342L416.133 75.9062L685.382 1628.23L2756.59 1268.98L2487.34 -283.342Z" fill="url(#paint1_linear_923_207)"/>
</g>
<mask id="mask2_923_207" style="mask-type:luminance" maskUnits="userSpaceOnUse" x="1046" y="1649" width="162" height="698">
<path d="M1088.01 1649.78C1090.12 1657.61 1091.27 1665.7 1091.32 1673.88V1674.52C1091.39 1686.67 1089.05 1698.7 1084.59 1710C1072.32 1741.09 1048.01 1812.12 1049.71 1883.01L1046.77 2190.19C1046.32 2236.86 1060.74 2283.1 1090.55 2319.79C1098.01 2328.97 1106.79 2337.82 1116.74 2346.01L1198.08 2249.78C1167.53 2245.44 1139.11 2224.66 1133.49 2194.42L1133.36 2193.7C1128.03 2164.54 1136.01 2134.51 1154.12 2111.04L1204.41 2059.28L1207.42 1706.75C1207.54 1692.58 1203.33 1670.22 1198.07 1657.06L1197.82 1656.53C1195.86 1652.41 1191.71 1649.79 1187.15 1649.79H1088.02L1088.01 1649.78Z" fill="white"/>
</mask>
<g mask="url(#mask2_923_207)">
<path d="M1133.97 1569.36L699.578 1967.55L1120 2426.19L1554.39 2028.01L1133.97 1569.36Z" fill="url(#paint2_linear_923_207)"/>
</g>
<path d="M1417.28 1435.28L1277.59 1430.31C1234.57 1428.78 1191.5 1429.02 1148.5 1431.03L1008.87 1437.55C989.718 1438.44 978.318 1458.61 987.888 1474.67L1078.01 1626.02C1082.45 1633.47 1085.77 1641.48 1088.01 1649.78H1187.32C1191.77 1649.78 1195.82 1652.34 1197.74 1656.36L1198.07 1657.05C1203.33 1670.21 1207.54 1692.57 1207.42 1706.74L1204.41 2059.28L1154.12 2111.04C1136.01 2134.51 1128.03 2164.53 1133.36 2193.7L1133.49 2194.42C1139.11 2224.67 1167.53 2245.44 1198.08 2249.78L1198.34 2249.47C1170.57 2240.49 1150.96 2213.38 1153.93 2181.99C1156.69 2152.81 1179.9 2128.41 1208.93 2124.41C1252.52 2118.39 1289.21 2155.99 1281.61 2199.82C1277.61 2222.89 1260.46 2242.2 1238.21 2249.5C1224.06 2254.14 1210.55 2253.5 1198.48 2249.67L1198.07 2249.79L1116.73 2346.02C1141.57 2366.46 1174.52 2382.28 1218.34 2385.13C1279.66 2380.45 1319.68 2350.77 1345.4 2318.38C1374.8 2281.35 1388.7 2234.96 1387.74 2188.3L1381.39 1881.17C1382.31 1810.25 1357.19 1739.47 1344.58 1708.53C1340 1697.29 1337.53 1685.31 1337.47 1673.17V1672.49C1337.38 1655.63 1341.8 1639.06 1350.26 1624.48L1438.68 1472.17C1448.07 1456 1436.45 1435.96 1417.29 1435.28" fill="#0A0C0F"/>
<path d="M538.978 36.0508H524.078L538.978 358.151V36.0508Z" fill="#43482F"/>
<mask id="mask3_923_207" style="mask-type:luminance" maskUnits="userSpaceOnUse" x="449" y="36" width="90" height="542">
<path d="M449.268 36.0508L452.628 319.841L453.698 577.421H536.918V564.931L538.978 358.151L536.918 564.931L538.978 36.0508H449.268Z" fill="white"/>
</mask>
<g mask="url(#mask3_923_207)">
<path d="M547.467 24.5312L611.947 575.411L448.557 588.931L386.137 43.4512L547.467 24.5312Z" fill="url(#paint3_linear_923_207)"/>
</g>
<path d="M538.977 41.8711L536.917 577.421H481.357L461.037 49.2411L538.977 41.8711Z" fill="url(#paint4_linear_923_207)"/>
<path d="M292.958 323.192V388.362C292.958 394.822 291.668 400.932 289.748 406.752V449.002C289.748 522.912 347.608 577.432 421.518 577.432H453.698L452.628 319.852L292.958 323.212V323.192Z" fill="#101116"/>
<mask id="mask4_923_207" style="mask-type:luminance" maskUnits="userSpaceOnUse" x="289" y="35" width="167" height="289">
<path d="M423.578 36.0491C349.668 36.0491 289.758 96.9591 289.758 170.869V238.079C291.668 243.899 292.968 250.009 292.968 256.469V323.199L452.638 319.839L455.768 35.2891L423.588 36.0491H423.578Z" fill="white"/>
</mask>
<g mask="url(#mask4_923_207)">
<path d="M333.788 -36.2891L579.708 113.411L408.598 395.531L162.668 244.841L333.788 -36.2891Z" fill="url(#paint5_linear_923_207)"/>
</g>
<mask id="mask5_923_207" style="mask-type:luminance" maskUnits="userSpaceOnUse" x="190" y="197" width="100" height="251">
<path d="M190.508 240.519V304.279L191.088 348.199C190.958 348.199 190.698 348.219 190.508 348.229V404.319C190.508 428.209 209.868 447.569 233.758 447.569C259.988 447.569 281.978 430.389 289.748 406.759V238.099C281.978 214.469 259.988 197.289 233.758 197.289C209.878 197.289 190.508 216.649 190.508 240.539" fill="white"/>
</mask>
<g mask="url(#mask5_923_207)">
<path d="M191.77 186.098L162.439 444.328L288.489 458.645L317.819 200.415L191.77 186.098Z" fill="url(#paint6_linear_923_207)"/>
</g>
<mask id="mask6_923_207" style="mask-type:luminance" maskUnits="userSpaceOnUse" x="289" y="323" width="4" height="84">
<path d="M289.748 323.26V406.74C291.658 400.92 292.958 394.81 292.958 388.35V323.18L289.748 323.25V323.26Z" fill="white"/>
</mask>
<g mask="url(#mask6_923_207)">
<path d="M289.785 322.793L280.375 405.641L292.914 407.065L302.324 324.218L289.785 322.793Z" fill="url(#paint7_linear_923_207)"/>
</g>
<mask id="mask7_923_207" style="mask-type:luminance" maskUnits="userSpaceOnUse" x="289" y="238" width="4" height="86">
<path d="M289.748 323.26L292.958 323.19V256.46C292.958 250 291.668 243.89 289.748 238.07V323.25V323.26Z" fill="white"/>
</mask>
<g mask="url(#mask7_923_207)">
<path d="M290.613 236.685L251.912 300.262L292.085 324.716L330.786 261.139L290.613 236.685Z" fill="url(#paint8_linear_923_207)"/>
</g>
<mask id="mask8_923_207" style="mask-type:luminance" maskUnits="userSpaceOnUse" x="289" y="238" width="4" height="86">
<path d="M289.748 323.26L292.958 323.19V256.46C292.958 250 291.668 243.89 289.748 238.07V323.25V323.26Z" fill="white"/>
</mask>
<g mask="url(#mask8_923_207)">
<path d="M289.784 237.684L280.191 322.141L292.91 323.585L302.502 239.128L289.784 237.684Z" fill="url(#paint9_linear_923_207)"/>
</g>
<mask id="mask9_923_207" style="mask-type:luminance" maskUnits="userSpaceOnUse" x="34" y="280" width="1202" height="1118">
<path d="M48.9669 353.619C40.3769 373.739 35.9469 396.409 35.7869 421.019L34.0469 699.729L34.0769 700.659C36.4969 768.629 81.1069 898.969 232.657 905.769L233.717 905.809L1050.15 903.709H1050.4C1102 903.709 1144.08 945.619 1144.26 997.249L1153.95 1387.55C1154.08 1392.97 1158.52 1397.28 1163.94 1397.26L1228.06 1397.04C1232.08 1396.8 1235.21 1393.47 1235.2 1389.44L1233.86 996.939C1233.52 896.019 1151.27 814.109 1050.41 814.109H1049.93L235.687 816.199C133.837 810.989 124.477 712.319 123.657 698.119L125.387 421.559C125.467 408.919 127.477 397.879 131.377 388.769C147.217 351.639 184.287 348.469 190.517 348.189V303.369L190.507 280.949C188.287 280.949 185.937 280.949 183.487 280.949C144.597 280.949 79.0869 283.039 48.9769 353.599" fill="white"/>
</mask>
<g mask="url(#mask9_923_207)">
<path d="M1235.22 280.969H34.0469V1416.9H1235.22V280.969Z" fill="url(#paint10_linear_923_207)"/>
</g>
<mask id="mask10_923_207" style="mask-type:luminance" maskUnits="userSpaceOnUse" x="190" y="304" width="2" height="45">
<path d="M190.508 348.219C190.698 348.219 190.958 348.2 191.088 348.19L190.508 304.27V348.21V348.219Z" fill="white"/>
</mask>
<g mask="url(#mask10_923_207)">
<path d="M190.513 304.17L185.578 347.621L191.083 348.246L196.018 304.796L190.513 304.17Z" fill="url(#paint11_linear_923_207)"/>
</g>
<mask id="mask11_923_207" style="mask-type:luminance" maskUnits="userSpaceOnUse" x="190" y="304" width="2" height="45">
<path d="M190.508 348.219C190.698 348.219 190.958 348.2 191.088 348.19L190.508 304.27V348.21V348.219Z" fill="white"/>
</mask>
<g mask="url(#mask11_923_207)">
<path d="M191.088 304.27H190.508V348.21H191.088V304.27Z" fill="url(#paint12_linear_923_207)"/>
</g>
<mask id="mask12_923_207" style="mask-type:luminance" maskUnits="userSpaceOnUse" x="836" y="195" width="552" height="8">
<path d="M836.719 202.531H1387.86V195.441L836.719 202.531Z" fill="white"/>
</mask>
<g mask="url(#mask12_923_207)">
<path d="M1371.71 102.706L835.474 195.715L852.77 295.436L1389 202.427L1371.71 102.706Z" fill="url(#paint13_linear_923_207)"/>
</g>
<mask id="mask13_923_207" style="mask-type:luminance" maskUnits="userSpaceOnUse" x="1387" y="132" width="189" height="64">
<path d="M1387.86 132.172V195.442L1575.7 193.032V132.172H1387.86Z" fill="white"/>
</mask>
<g mask="url(#mask13_923_207)">
<path d="M1570.18 100.648L1377.17 134.125L1393.31 227.195L1586.32 193.718L1570.18 100.648Z" fill="url(#paint14_linear_923_207)"/>
</g>
<mask id="mask14_923_207" style="mask-type:luminance" maskUnits="userSpaceOnUse" x="1376" y="132" width="189" height="64">
<path d="M1376.86 132.172V195.442L1564.7 193.032V132.172H1376.86Z" fill="white"/>
</mask>
<g mask="url(#mask14_923_207)">
<path d="M1564.7 132.172H1376.86V195.452H1564.7V132.172Z" fill="url(#paint15_linear_923_207)"/>
</g>
<mask id="mask15_923_207" style="mask-type:luminance" maskUnits="userSpaceOnUse" x="736" y="132" width="652" height="92">
<path d="M779.558 132.17V132.42C753.698 133.86 733.538 156.66 736.928 183.58C739.408 203.29 755.278 219.65 774.918 222.65C789.408 224.86 802.808 220.22 812.478 211.49C819.078 205.53 827.828 202.53 836.728 202.53L1387.87 195.44V132.16H779.568L779.558 132.17Z" fill="white"/>
</mask>
<g mask="url(#mask15_923_207)">
<path d="M1368.7 22.0468L717.883 134.93L752.609 335.14L1403.42 222.258L1368.7 22.0468Z" fill="url(#paint16_linear_923_207)"/>
</g>
<mask id="mask16_923_207" style="mask-type:luminance" maskUnits="userSpaceOnUse" x="736" y="132" width="652" height="92">
<path d="M779.558 132.17V132.42C753.698 133.86 733.538 156.66 736.928 183.58C739.408 203.29 755.278 219.65 774.918 222.65C789.408 224.86 802.808 220.22 812.478 211.49C819.078 205.53 827.828 202.53 836.728 202.53L1387.87 195.44V132.16H779.568L779.558 132.17Z" fill="white"/>
</mask>
<g mask="url(#mask16_923_207)">
<path d="M1387.86 132.172H733.538V224.872H1387.86V132.172Z" fill="url(#paint17_linear_923_207)"/>
</g>
<path d="M659.018 379.208V38.8281H684.618L659.018 379.208Z" fill="url(#paint18_linear_923_207)"/>
<defs>
<linearGradient id="paint0_linear_923_207" x1="1367.33" y1="304.71" x2="1720.2" y2="1592.82" gradientUnits="userSpaceOnUse">
<stop stop-color="#0D1216"/>
<stop offset="0.33" stop-color="#0D1216"/>
<stop offset="0.36" stop-color="#181E22"/>
<stop offset="0.4" stop-color="#272F32"/>
<stop offset="0.44" stop-color="#2D3538"/>
<stop offset="1" stop-color="#2D3538"/>
</linearGradient>
<linearGradient id="paint1_linear_923_207" x1="1430.4" y1="-209.605" x2="1791.41" y2="1871.78" gradientUnits="userSpaceOnUse">
<stop stop-color="#212E34"/>
<stop offset="0.18" stop-color="#212E34"/>
<stop offset="0.52" stop-color="#101417"/>
<stop offset="1" stop-color="#101417"/>
</linearGradient>
<linearGradient id="paint2_linear_923_207" x1="826.768" y1="1678.65" x2="1530.73" y2="2446.62" gradientUnits="userSpaceOnUse">
<stop stop-color="#2B3331"/>
<stop offset="0.31" stop-color="#29312F"/>
<stop offset="0.43" stop-color="#232A2A"/>
<stop offset="0.53" stop-color="#181D20"/>
<stop offset="0.58" stop-color="#0D1117"/>
<stop offset="1" stop-color="#0D1117"/>
</linearGradient>
<linearGradient id="paint3_linear_923_207" x1="242.422" y1="50.3004" x2="330.236" y2="798.95" gradientUnits="userSpaceOnUse">
<stop stop-color="#FAAD18"/>
<stop offset="0.76" stop-color="#BC4827"/>
<stop offset="1" stop-color="#BC4827"/>
</linearGradient>
<linearGradient id="paint4_linear_923_207" x1="287.379" y1="-19.2597" x2="214.731" y2="755.052" gradientUnits="userSpaceOnUse">
<stop stop-color="#FAAD18"/>
<stop offset="0.76" stop-color="#BC4827"/>
<stop offset="1" stop-color="#BC4827"/>
</linearGradient>
<linearGradient id="paint5_linear_923_207" x1="345.762" y1="22.2995" x2="752.77" y2="270.056" gradientUnits="userSpaceOnUse">
<stop stop-color="#0C1214"/>
<stop offset="0.02" stop-color="#151F22"/>
<stop offset="0.06" stop-color="#1C2A2E"/>
<stop offset="0.11" stop-color="#203035"/>
<stop offset="0.24" stop-color="#223237"/>
<stop offset="1" stop-color="#223237"/>
</linearGradient>
<linearGradient id="paint6_linear_923_207" x1="254.657" y1="200.144" x2="220.718" y2="498.953" gradientUnits="userSpaceOnUse">
<stop stop-color="#0C1214"/>
<stop offset="0.03" stop-color="#0C1214"/>
<stop offset="0.06" stop-color="#322815"/>
<stop offset="0.09" stop-color="#5B4016"/>
<stop offset="0.13" stop-color="#805617"/>
<stop offset="0.18" stop-color="#A16919"/>
<stop offset="0.23" stop-color="#BC7919"/>
<stop offset="0.28" stop-color="#D2861A"/>
<stop offset="0.35" stop-color="#E3901B"/>
<stop offset="0.43" stop-color="#EF961B"/>
<stop offset="0.54" stop-color="#F69A1B"/>
<stop offset="0.85" stop-color="#F89C1C"/>
<stop offset="0.96" stop-color="#070909"/>
<stop offset="1" stop-color="#070909"/>
</linearGradient>
<linearGradient id="paint7_linear_923_207" x1="313.992" y1="158.443" x2="280.052" y2="457.258" gradientUnits="userSpaceOnUse">
<stop stop-color="#0C1214"/>
<stop offset="0.03" stop-color="#0C1214"/>
<stop offset="0.06" stop-color="#322815"/>
<stop offset="0.09" stop-color="#5B4016"/>
<stop offset="0.13" stop-color="#805617"/>
<stop offset="0.18" stop-color="#A16919"/>
<stop offset="0.23" stop-color="#BC7919"/>
<stop offset="0.28" stop-color="#D2861A"/>
<stop offset="0.35" stop-color="#E3901B"/>
<stop offset="0.43" stop-color="#EF961B"/>
<stop offset="0.54" stop-color="#F69A1B"/>
<stop offset="0.85" stop-color="#F89C1C"/>
<stop offset="0.96" stop-color="#070909"/>
<stop offset="1" stop-color="#070909"/>
</linearGradient>
<linearGradient id="paint8_linear_923_207" x1="218.097" y1="233.621" x2="625.106" y2="481.378" gradientUnits="userSpaceOnUse">
<stop stop-color="#0C1214"/>
<stop offset="0.02" stop-color="#151F22"/>
<stop offset="0.06" stop-color="#1C2A2E"/>
<stop offset="0.11" stop-color="#203035"/>
<stop offset="0.24" stop-color="#223237"/>
<stop offset="1" stop-color="#223237"/>
</linearGradient>
<linearGradient id="paint9_linear_923_207" x1="307.025" y1="154.194" x2="273.085" y2="453.009" gradientUnits="userSpaceOnUse">
<stop stop-color="#0C1214"/>
<stop offset="0.03" stop-color="#0C1214"/>
<stop offset="0.06" stop-color="#322815"/>
<stop offset="0.09" stop-color="#5B4016"/>
<stop offset="0.13" stop-color="#805617"/>
<stop offset="0.18" stop-color="#A16919"/>
<stop offset="0.23" stop-color="#BC7919"/>
<stop offset="0.28" stop-color="#D2861A"/>
<stop offset="0.35" stop-color="#E3901B"/>
<stop offset="0.43" stop-color="#EF961B"/>
<stop offset="0.54" stop-color="#F69A1B"/>
<stop offset="0.85" stop-color="#F89C1C"/>
<stop offset="0.96" stop-color="#070909"/>
<stop offset="1" stop-color="#070909"/>
</linearGradient>
<linearGradient id="paint10_linear_923_207" x1="35.6286" y1="857.734" x2="1223.95" y2="857.734" gradientUnits="userSpaceOnUse">
<stop stop-color="#0B0C0D"/>
<stop offset="0.03" stop-color="#0B0C0D"/>
<stop offset="0.09" stop-color="#0C1317"/>
<stop offset="0.19" stop-color="#0C171E"/>
<stop offset="0.46" stop-color="#0D1920"/>
<stop offset="0.5" stop-color="#0C1419"/>
<stop offset="0.6" stop-color="#0C0F12"/>
<stop offset="0.85" stop-color="#0C0E11"/>
<stop offset="1" stop-color="#0C0E11"/>
</linearGradient>
<linearGradient id="paint11_linear_923_207" x1="209.735" y1="147.678" x2="175.795" y2="446.493" gradientUnits="userSpaceOnUse">
<stop stop-color="#0C1214"/>
<stop offset="0.03" stop-color="#0C1214"/>
<stop offset="0.06" stop-color="#322815"/>
<stop offset="0.09" stop-color="#5B4016"/>
<stop offset="0.13" stop-color="#805617"/>
<stop offset="0.18" stop-color="#A16919"/>
<stop offset="0.23" stop-color="#BC7919"/>
<stop offset="0.28" stop-color="#D2861A"/>
<stop offset="0.35" stop-color="#E3901B"/>
<stop offset="0.43" stop-color="#EF961B"/>
<stop offset="0.54" stop-color="#F69A1B"/>
<stop offset="0.85" stop-color="#F89C1C"/>
<stop offset="0.96" stop-color="#070909"/>
<stop offset="1" stop-color="#070909"/>
</linearGradient>
<linearGradient id="paint12_linear_923_207" x1="48.6322" y1="320.333" x2="1236.89" y2="320.333" gradientUnits="userSpaceOnUse">
<stop stop-color="#0B0C0D"/>
<stop offset="0.03" stop-color="#0B0C0D"/>
<stop offset="0.09" stop-color="#0C1317"/>
<stop offset="0.19" stop-color="#0C171E"/>
<stop offset="0.46" stop-color="#0D1920"/>
<stop offset="0.5" stop-color="#0C1419"/>
<stop offset="0.6" stop-color="#0C0F12"/>
<stop offset="0.85" stop-color="#0C0E11"/>
<stop offset="1" stop-color="#0C0E11"/>
</linearGradient>
<linearGradient id="paint13_linear_923_207" x1="1051.98" y1="-154.448" x2="1413" y2="1926.95" gradientUnits="userSpaceOnUse">
<stop stop-color="#212E34"/>
<stop offset="0.18" stop-color="#212E34"/>
<stop offset="0.52" stop-color="#101417"/>
<stop offset="1" stop-color="#101417"/>
</linearGradient>
<linearGradient id="paint14_linear_923_207" x1="1399.33" y1="-223.272" x2="1760.35" y2="1858.13" gradientUnits="userSpaceOnUse">
<stop stop-color="#212E34"/>
<stop offset="0.18" stop-color="#212E34"/>
<stop offset="0.52" stop-color="#101417"/>
<stop offset="1" stop-color="#101417"/>
</linearGradient>
<linearGradient id="paint15_linear_923_207" x1="575.162" y1="163.526" x2="3099.53" y2="163.526" gradientUnits="userSpaceOnUse">
<stop stop-color="#ECF4F6"/>
<stop offset="0.17" stop-color="#E3EBED"/>
<stop offset="0.2" stop-color="#B1BBBD"/>
<stop offset="0.23" stop-color="#869193"/>
<stop offset="0.26" stop-color="#636F71"/>
<stop offset="0.29" stop-color="#485556"/>
<stop offset="0.32" stop-color="#354243"/>
<stop offset="0.35" stop-color="#293738"/>
<stop offset="0.38" stop-color="#263435"/>
<stop offset="1" stop-color="#263435"/>
</linearGradient>
<linearGradient id="paint16_linear_923_207" x1="1011.38" y1="-166.876" x2="1372.4" y2="1914.53" gradientUnits="userSpaceOnUse">
<stop stop-color="#212E34"/>
<stop offset="0.18" stop-color="#212E34"/>
<stop offset="0.52" stop-color="#101417"/>
<stop offset="1" stop-color="#101417"/>
</linearGradient>
<linearGradient id="paint17_linear_923_207" x1="601.985" y1="184.659" x2="3086.9" y2="184.659" gradientUnits="userSpaceOnUse">
<stop stop-color="#ECF4F6"/>
<stop offset="0.17" stop-color="#E3EBED"/>
<stop offset="0.2" stop-color="#B1BBBD"/>
<stop offset="0.23" stop-color="#869193"/>
<stop offset="0.26" stop-color="#636F71"/>
<stop offset="0.29" stop-color="#485556"/>
<stop offset="0.32" stop-color="#354243"/>
<stop offset="0.35" stop-color="#293738"/>
<stop offset="0.38" stop-color="#263435"/>
<stop offset="1" stop-color="#263435"/>
</linearGradient>
<linearGradient id="paint18_linear_923_207" x1="659.018" y1="209.018" x2="1105.69" y2="209.018" gradientUnits="userSpaceOnUse">
<stop stop-color="#212E34"/>
<stop offset="0.18" stop-color="#212E34"/>
<stop offset="0.52" stop-color="#101417"/>
</linearGradient>
</defs>
</svg>
